<svg xmlns="http://www.w3.org/2000/svg" width="708" height="200" fill="none"><g clip-path="url(#B)"><path d="M236.494 122.894c0-5.651 7.088-11.877 8.046-11.303 5.077 4.406 14.847 8.908 23.18 8.908 7.376 0 11.016-2.107 11.016-6.226 0-4.789-6.227-4.789-13.985-6.513-13.027-2.682-26.15-8.046-26.15-24.042s11.878-25.862 33.238-25.862c20.498 0 29.406 7.088 29.406 14.847 0 6.801-8.046 12.452-8.621 11.877-5.076-4.789-13.314-8.333-20.785-8.333-7.088 0-10.345 2.107-10.345 5.939 0 4.406 6.226 4.119 14.56 5.939 15.421 3.257 27.011 9.77 27.011 24.329 0 16.954-11.59 26.437-35.345 26.437-22.893 0-31.226-7.758-31.226-15.996zm74.521 3.831V70.308c0-7.376 3.544-11.303 10.058-11.303h3.544c7.088 0 10.728 3.831 10.728 11.303v17.816h24.904V70.308c0-7.376 3.544-11.303 10.057-11.303h3.544c6.801 0 10.345 3.831 10.345 11.303v56.417c0 7.376-3.544 11.303-10.345 11.303h-3.544c-6.513 0-10.057-3.831-10.057-11.303v-18.39h-24.904v18.39c0 7.376-3.544 11.303-10.728 11.303h-3.544c-6.514-.287-10.058-4.214-10.058-11.303zm129.119-18.39c0 8.333-6.226 13.697-14.559 13.697-5.939 0-9.771-2.969-9.771-7.759 0-8.046 10.728-11.302 18.679-11.302h5.364v5.364h.287zm-13.602-50.767c-15.708 0-30.555 7.375-30.555 17.241 0 12.165 15.134 11.877 15.134 11.877 1.82-6.513 7.088-10.057 14.272-10.057 11.015 0 14.847 5.364 14.847 13.027h-5.364c-31.13 0-43.008 12.453-43.008 26.437 0 13.698 11.59 22.893 26.724 22.893 10.728 0 20.786-3.831 22.606-11.303.862 5.652 6.226 10.728 13.314 10.728 6.226 0 9.195-2.107 9.483-2.969v-47.51c-.096-19.349-13.41-30.364-37.453-30.364zm44.541 70.02v-1.15c0-6.801 2.394-9.483 6.513-13.697l29.694-33.525h-24.617c-7.088 0-10.728-2.395-10.728-9.195v-1.15c0-6.513 3.544-9.195 10.728-9.195h43.678c8.908 0 12.165 4.789 12.165 9.195v1.15c0 6.801-2.682 9.483-6.514 13.697l-30.268 33.525h26.724c7.088 0 10.728 2.682 10.728 9.482v.863c0 6.513-3.544 9.482-10.728 9.482h-45.115c-8.716 0-12.26-4.693-12.26-9.482zm121.935-19.253c0 8.333-6.227 13.697-14.56 13.697-5.939 0-9.77-2.969-9.77-7.759 0-8.046 10.728-11.302 18.678-11.302h5.364v5.364h.288zm-13.889-50.767c-15.709 0-30.556 7.375-30.556 17.241 0 12.165 15.134 11.877 15.134 11.877 1.82-6.513 7.088-10.057 14.272-10.057 11.016 0 14.847 5.364 14.847 13.027h-5.364c-31.13 0-43.008 12.453-43.008 26.437 0 13.698 11.59 22.893 26.724 22.893 10.728 0 20.786-3.831 22.606-11.303.862 5.652 6.226 10.728 13.314 10.728 6.226 0 9.195-2.107 9.483-2.969v-47.51c-.096-19.349-13.123-30.364-37.452-30.364zm46.264 69.157v-56.13c0-7.759 3.831-11.59 10.728-11.59h6.801c6.513 0 8.62 1.437 10.728 6.514l12.739 31.13 12.74-31.13c2.394-5.364 4.789-6.514 10.344-6.514h6.801c7.088 0 11.016 3.831 11.016 11.59v56.13c0 7.376-2.682 11.303-9.483 11.303h-3.832c-6.513 0-9.482-3.831-9.482-11.303V93.488l-8.334 22.893c-1.149 2.969-1.149 5.938-10.345 5.938s-8.908-2.682-10.057-5.938l-8.046-21.648v32.376c0 7.375-2.395 11.302-9.483 11.302h-3.831c-6.035-.67-9.004-4.597-9.004-11.686z" fill="#fff"/><path d="M0 99.714c0 55.172 44.828 99.713 99.713 99.713 55.172 0 99.712-44.828 99.712-99.713 0-55.172-44.827-99.713-99.712-99.713C44.828-.286 0 44.542 0 99.714z" fill="url(#A)"/><path d="M153.161 136.783c-9.483 10.345-26.437 26.724-27.299 27.299-2.395 2.107-5.077 3.257-8.046 3.257s-5.939-1.15-8.333-3.544c-4.407-4.79-4.119-11.878.287-16.284.287-.287 17.241-16.283 26.149-26.149 4.119-4.79 6.226-10.728 5.939-16.954-.287-6.514-3.544-12.74-8.908-17.242-7.088-5.939-20.785-7.376-29.406.287-5.077 4.789-11.303 11.303-11.59 11.59-4.406 4.789-11.59 5.076-16.284.575s-5.077-11.59-.575-16.284c.287-.287 7.088-7.759 13.027-13.027 16.284-14.847 43.295-15.134 59.962-.575 10.058 8.621 15.996 20.498 16.954 33.238.862 12.452-3.257 24.617-11.877 33.812zm-69.828.958c-10.728 0-21.36-3.544-29.694-10.728-10.057-8.621-15.996-20.498-16.954-33.238-.862-12.452 3.544-24.329 11.877-33.812C58.046 49.619 75 33.239 75.862 32.664c4.789-4.406 11.877-4.119 16.283.287 4.406 4.789 4.119 11.877-.287 16.284-.287.287-17.241 16.283-26.149 26.149-4.119 4.789-6.226 10.728-5.939 16.954.287 6.513 3.544 12.739 8.908 17.241 7.088 5.939 20.785 7.376 29.406-.287 5.077-4.789 11.303-11.303 11.59-11.59 4.406-4.789 11.59-5.077 16.284-.575s5.076 11.59.574 16.284c-.287.287-7.088 7.758-13.026 13.026-8.142 7.376-19.157 11.303-30.173 11.303z" fill="#fff"/></g><defs><linearGradient id="A" x1="99.74" y1="199.447" x2="99.74" y2="-112.609" gradientUnits="userSpaceOnUse"><stop stop-color="#25f"/><stop offset="1" stop-color="#0af"/></linearGradient><clipPath id="B"><path fill="#fff" d="M0 0h707.28v200H0z"/></clipPath></defs></svg>
